#!OML:ASF F:\VICON\USERDATA\INSTALL\rory3\rory3.ASF
:FULLY-SPECIFIED
:DEGREES
62
root 0.2846825410300916 17.98570996376231 -7.9187186405723295 16.93482467854063 0.03566068396673072 -1.8033820394091302
lfemur -13.71471063973917 8.26994813897268 -13.963701316749017
ltibia 38.868435123959145
lfoot -0.6664193090736408 -0.7594990704467488
ltoes -18.320474717812857
rfemur -11.705832285341007 -8.802736944913121 19.440844476938853
rtibia 30.60954705506285
rfoot 4.355643993113754 -5.374631405425712
rtoes -2.828178594693462
lowerback 1.2698408905072416 -0.1883511510841413 -2.3143433541222262
upperback -0.5508262308462024 -0.4029482577249406 1.0678866860427576
thorax 0.23756284194125765 -0.18072857195253011 2.105657627538868
lowerneck -12.204687835247851 0.12586031066591036 -2.0696622414703567
upperneck 20.014700255707403 0.5147146561916511 0.12784336117407702
head 7.874235254431025 0.16063866284165895 0.677913146589739
lclavicle 1.0933835710404361e-15 -2.2160118637282193e-15
lhumerus -18.944018281474875 -19.008436790540166 82.20671362364877
lradius 33.40514334121593
lwrist 25.86399971885109
lhand -23.67237401164579 -5.238164439451297
lfingers 7.12502
lthumb 2.748829633509849 24.285747854004548
rclavicle 1.0940623620182796e-15 -2.2154668861007823e-15
rhumerus -18.550922729126164 1.5855892331251606 -80.96438027757306
rradius 37.92724044865172
rwrist 30.68247397795397
rhand -17.337453824568705 -24.533973323957117
rfingers 7.12502
rthumb 8.7999665130449 -54.41873381290135
63
root 0.31402827196970573 19.402687571064046 -6.271199917627543 14.649069846944428 0.8474855577455562 -2.483915117985976
lfemur -12.26209731975722 6.521227524759386 -12.4790545264596
ltibia 41.86643699002237
lfoot 10.780808005753505 -1.8286847491611837
ltoes -9.63192172617088
rfemur -7.525062580687441 -9.25016394571238 19.962104129592902
rtibia 33.08751883229362
rfoot 19.90181623107781 -10.698642155129857
rtoes 23.056204740332355
lowerback -1.4456357613938153 -0.7506119538559747 -1.5203545755208356
upperback 0.9137257752885455 -1.0783470871686605 1.2684055280794095
thorax 4.063604331271717 -0.598353077487045 1.8929202335047817
lowerneck -9.252104065101928 0.10969662175567273 -2.1658561673146823
upperneck 22.244183607898652 0.39924370109545515 0.5059320140907155
head 8.115409595859468 0.1371871729471419 0.7663754373586869
lclavicle 1.0940051487988862e-15 -2.2152465342396115e-15
lhumerus -21.720288633461344 -23.11483836257106 82.97554470598176
lradius 35.57756324231263
lwrist 28.14025752665363
lhand -23.409138601249186 -5.036068119324976
lfingers 7.12502
lthumb 2.994662449477387 24.57031881223748
rclavicle 1.0939921968499185e-15 -2.2155510735010137e-15
rhumerus -20.12183856078307 3.172320899565996 -80.36381826576518
rradius 40.387110315498326
rwrist 30.093033679059364
rhand -16.963404390173444 -24.06393800579796
rfingers 7.12502
rthumb 9.214461510277307 -53.95724315997246
64
root 0.263287502088562 20.68243563195681 -4.973088043783891 12.006895913219381 1.3586092790018072 -1.9151004070264712
lfemur -17.001674780133428 6.6813901650842995 -13.055236175446467
ltibia 51.95993199310739
lfoot 14.59010307752043 -1.705539704407105
ltoes -2.9852368931478885
rfemur -10.618302762586856 -9.127490042337826 20.090207833298813
rtibia 46.164287794111324
rfoot 23.471221212713942 -8.184019648016056
rtoes 31.801811008213065
lowerback -0.41647922784340174 -0.9005981268069252 -2.524327525747593
upperback 2.7451421191799774 -1.3009618845775117 1.2287256937477056
thorax 4.86409660998568 -0.7643215524224434 2.3274404635420174
lowerneck -8.438864653533178 0.031798096083858376 -2.2281919424342376
upperneck 23.687457976835976 0.2211739922463498 1.0842629911734676
head 8.45527161058502 0.10326240671498298 0.8978263834882505
lclavicle 1.0948281988920532e-15 -2.2142290117328543e-15
lhumerus -22.938726263296083 -23.457136530048412 83.75690765062429
lradius 36.39997885533359
lwrist 28.34347347925784
lhand -23.079487956878133 -5.0209381951088385
lfingers 7.12502
lthumb 3.375569223588097 24.751238895669758
rclavicle 1.0940692622848198e-15 -2.2154538330877734e-15
rhumerus -20.92642972050869 2.246124753316538 -79.9308823613348
rradius 41.76826840997053
rwrist 30.498405226843076
rhand -16.877671938027 -24.242910030596676
rfingers 7.12502
rthumb 9.344489645752962 -54.26868773499213
65
root 0.27005426738497057 21.86557117027993 -3.9462582602142398 9.31140613286419 1.5111399290233043 -1.457497164052637
lfemur -21.086176121682065 7.598766213671751 -13.983208684799495
ltibia 59.84075828349181
lfoot 13.449405064642969 -1.6861721133324297
ltoes -0.3050918900757047
rfemur -15.55441558594913 -10.341246342399776 20.211051127596047
rtibia 60.20321271325608
rfoot 21.356730644907834 -5.2744395461815845
rtoes 30.6966464006009
lowerback 2.162142818500652 -0.8102568715803603 -2.8863995331519425
upperback 4.999206205273863 -1.2104042849876502 1.14588806039417
thorax 3.8201043818911757 -0.7484583506852085 2.476047175182617
lowerneck -8.2711378273849 -0.03835371549036505 -2.2684899444109514
upperneck 24.692618146477006 0.12543415893928994 1.2734773178972576
head 8.640875821415804 0.07693054897645597 0.9341103060154955
lclavicle 1.0953893748951866e-15 -2.213535666089148e-15
lhumerus -24.092594008327488 -21.481003790553167 84.9067986550947
lradius 35.63960080496339
lwrist 27.575948626579297
lhand -22.945689542994575 -5.340828233670351
lfingers 7.12502
lthumb 3.8635218063781753 24.788188808890474
rclavicle 1.094282256883313e-15 -2.2151909579420728e-15
rhumerus -21.126613418543965 0.2482015063060441 -79.78534196105049
rradius 41.439119496863306
rwrist 30.92837567054561
rhand -16.52177722313298 -24.183652621809216
rfingers 7.12502
rthumb 9.696785061416248 -54.335196134188614
66
root 0.31098894460120885 22.560822553109567 -3.0076481633638945 10.13210344316157 0.967032399656724 -2.2092096876093485
lfemur -26.141448444790438 8.535794151300989 -14.560213179702943
ltibia 60.82287698411075
lfoot 9.25390440522939 -1.6411169782815627
ltoes -0.18461781776417396
rfemur -23.896890129850778 -11.480401149800695 22.227478004616145
rtibia 67.90363861397287
rfoot 16.230946445106504 -4.218381613107756
rtoes 27.393102141990422
lowerback 3.044909401696052 -0.5301631728872576 -1.9602023028791147
upperback 5.546611242404449 -0.8544016847962256 1.3297881471388466
thorax 2.911349790109081 -0.5633341777994921 2.313692686959363
lowerneck -8.385597008741765 -0.06941951171898329 -2.2136266268152887
upperneck 25.324623825738684 0.06557967516921401 1.1863183952335399
head 8.715643805575613 0.05056495088056781 0.8834779579402253
lclavicle 1.0952693477651557e-15 -2.2136794145856838e-15
lhumerus -25.912650964736223 -18.78309919549126 86.23298455605439
lradius 33.632778610833235
lwrist 24.44841416557689
lhand -22.97672070991655 -5.717516103434896
lfingers 7.12502
lthumb 4.181306021208966 24.48647925597063
rclavicle 1.0940493888721455e-15 -2.21548080664656e-15
rhumerus -21.111911487299157 -1.027917689686502 -80.001957922927
rradius 40.72152281253334
rwrist 31.112059035290592
rhand -16.257034054231863 -24.09887345000781
rfingers 7.12502
rthumb 10.01696176347154 -54.32131235280886
67
root 0.3282195985665612 22.931499797366 -2.2793330278556274 9.114429084217965 0.4806773767579027 -1.0655820338038091
lfemur -31.164120136274867 9.483333748955163 -17.225335855137363
ltibia 56.41102909548208
lfoot 5.580681501178386 -1.6499418211029537
ltoes -1.2830507502762192
rfemur -29.748156676664067 -11.165390481241879 22.237743973008115
rtibia 68.44512420727256
rfoot 11.743005551663815 -2.5925818010967303
rtoes 23.366427806717912
lowerback 5.430150603394168 -0.26177716226071024 -2.9019033441294946
upperback 6.529871951422024 -0.5315305338919143 0.970096854021774
thorax 1.680374657116742 -0.39265877338982114 2.513475094074746
lowerneck -8.684359079609754 -0.07812319509023627 -2.058119745023712
upperneck 25.718062199967672 -0.03090414965263945 1.228258296411696
head 8.88387183101264 0.017241182279677456 0.8602252686881102
lclavicle 1.0947998009174961e-15 -2.2143428359349503e-15
lhumerus -29.22202490716685 -16.492203062539275 87.40749997670655
lradius 31.76961378287384
lwrist 22.765366724816907
lhand -22.789622399061958 -5.808071232106566
lfingers 7.12502
lthumb 4.4116724753200405 23.941138015929166
rclavicle 1.094760764077952e-15 -2.2145981066429824e-15
rhumerus -21.128820712345984 -2.2546454968063667 -80.48879321820715
rradius 40.18031662937146
rwrist 31.233970675777588
rhand -16.523730455587888 -24.433509503259085
rfingers 7.12502
rthumb 9.741469954924192 -54.671369755027975
